<?xml version="1.0" encoding="UTF-8" standalone="no"?>
<!DOCTYPE svg PUBLIC "-//W3C//DTD SVG 1.1//EN" "http://www.w3.org/Graphics/SVG/1.1/DTD/svg11.dtd">
<svg xmlns="http://www.w3.org/2000/svg" version="1.1" viewBox="0.00 0.00 512.00 512.00">
<path fill="#000000" d="
  M 221.60 0.00
  L 290.51 0.00
  C 310.41 1.77 326.19 13.19 333.17 31.67
  C 336.92 41.60 336.09 53.10 335.98 63.28
  A 0.71 0.70 -90.0 0 0 336.68 63.99
  Q 375.61 64.02 414.50 63.99
  Q 428.76 63.97 434.37 65.44
  C 446.80 68.69 456.51 77.72 461.36 89.61
  Q 463.96 95.98 463.97 101.75
  Q 464.00 128.29 464.02 154.85
  Q 464.02 162.96 462.54 166.47
  Q 459.60 173.44 451.69 175.50
  C 448.25 176.39 443.69 175.93 439.78 176.02
  Q 439.26 176.03 439.23 176.55
  Q 432.55 316.66 425.89 456.76
  Q 425.22 470.92 423.73 476.60
  C 418.45 496.71 400.80 510.52 379.96 512.00
  L 131.90 512.00
  C 107.04 509.80 87.97 491.56 86.74 466.49
  Q 79.67 321.51 72.74 176.53
  Q 72.71 176.00 72.19 176.00
  C 67.70 176.00 62.67 176.47 58.71 175.02
  Q 51.85 172.52 49.32 166.17
  Q 47.96 162.78 47.98 154.17
  Q 48.01 132.47 48.01 110.79
  Q 48.01 98.77 49.47 93.35
  C 54.22 75.72 70.58 63.85 89.00 63.90
  Q 132.19 64.03 175.38 64.00
  Q 175.95 64.00 175.96 63.43
  C 176.09 53.43 175.01 42.73 178.36 33.01
  C 184.98 13.78 201.15 1.84 221.60 0.00
  Z
  M 208.81 64.00
  L 303.21 64.00
  A 0.86 0.86 0.0 0 0 304.07 63.14
  L 304.07 48.53
  A 16.95 16.61 0.0 0 0 287.12 31.92
  L 224.90 31.92
  A 16.95 16.61 0.0 0 0 207.95 48.53
  L 207.95 63.14
  A 0.86 0.86 0.0 0 0 208.81 64.00
  Z
  M 431.98 105.67
  C 431.96 101.05 429.87 96.00 424.50 96.00
  Q 256.50 96.00 88.50 96.00
  C 81.60 96.00 80.01 100.76 80.00 106.97
  Q 79.99 124.84 80.00 142.77
  Q 80.00 144.00 81.24 144.00
  L 431.24 144.00
  A 0.75 0.75 0.0 0 0 431.99 143.25
  Q 432.03 124.58 431.98 105.67
  Z
  M 384.06 478.56
  C 388.37 476.62 393.15 471.27 393.40 466.00
  Q 400.30 321.21 407.20 176.24
  A 0.23 0.22 2.3 0 0 406.97 176.00
  L 105.03 176.00
  Q 104.78 176.00 104.79 176.25
  Q 111.56 318.31 118.32 460.45
  C 118.72 468.75 120.24 475.16 127.84 478.45
  Q 131.44 480.01 140.85 480.01
  Q 257.30 480.00 373.74 479.99
  Q 380.84 479.99 384.06 478.56
  Z"
/>
<rect fill="#000000" x="160.01" y="208.05" width="31.98" height="239.88" rx="15.76"/>
<rect fill="#000000" x="240.01" y="208.05" width="31.98" height="239.88" rx="15.76"/>
<rect fill="#000000" x="320.01" y="208.05" width="31.98" height="239.88" rx="15.76"/>
</svg>
